<svg width="750" height="650" viewBox="0 0 750 650" xmlns="http://www.w3.org/2000/svg">
  <rect x="275" y="10" width="200" height="40" rx="10" fill="lightgreen" stroke="black" stroke-width="1.5"/>
  <text x="375" y="35" text-anchor="middle" font-size="13">Прерывание по фронту PA0</text>
  <polygon points="375,55 375,75" fill="black"/>
  <rect x="250" y="80" width="250" height="50" fill="white" stroke="black"/>
  <text x="375" y="100" text-anchor="middle" font-size="12">measured_time = CCR1 -</text>
  <text x="375" y="118" text-anchor="middle" font-size="12">measured_time_start</text>
  <polygon points="375,135 375,155" fill="black"/>
  <polygon points="375,160 415,195 375,230 335,195" fill="white" stroke="black"/>
  <text x="375" y="200" text-anchor="middle" font-size="12">measured_time</text>
  <text x="375" y="215" text-anchor="middle" font-size="12">&lt; 0 ?</text>
  <line x1="335" y1="195" x2="180" y2="195" stroke="black"/>
  <polygon points="180,190 170,195 180,200" fill="black"/>
  <rect x="60" y="220" width="220" height="40" fill="white" stroke="black"/>
  <text x="170" y="245" text-anchor="middle" font-size="12">measured_time += 0xFFFF</text>
  <line x1="170" y1="260" x2="170" y2="300" stroke="black"/>
  <polygon points="165,300 170,310 175,300" fill="black"/>
  <line x1="415" y1="195" x2="600" y2="195" stroke="black"/>
  <line x1="600" y1="195" x2="600" y2="290" stroke="black"/>
  <line x1="170" y1="310" x2="600" y2="310" stroke="black" stroke-dasharray="5,3"/>
  <rect x="300" y="320" width="250" height="40" fill="white" stroke="black"/>
  <text x="425" y="345" text-anchor="middle" font-size="12">measured_time_start = CCR1</text>
  <polygon points="425,365 425,385" fill="black"/>
  <polygon points="425,390 465,425 425,460 385,425" fill="white" stroke="black"/>
  <text x="425" y="430" text-anchor="middle" font-size="12">measured_time</text>
  <text x="425" y="445" text-anchor="middle" font-size="12">&gt; 3000 ?</text>
  <line x1="385" y1="425" x2="200" y2="425" stroke="black"/>
  <polygon points="200,420 190,425 200,430" fill="black"/>
  <rect x="90" y="450" width="210" height="40" fill="white" stroke="black"/>
  <text x="195" y="475" text-anchor="middle" font-size="12">channel_select_counter = 0</text>
  <line x1="195" y1="490" x2="195" y2="580" stroke="black"/>
  <line x1="465" y1="425" x2="560" y2="425" stroke="black"/>
  <polygon points="560,420 570,425 560,430" fill="black"/>
  <polygon points="570,440 610,475 570,510 530,475" fill="white" stroke="black"/>
  <text x="570" y="465" text-anchor="middle" font-size="11">800 ≤ t ≤ 2200 ?</text>
  <line x1="570" y1="510" x2="570" y2="540" stroke="black"/>
  <polygon points="565,540 570,550 575,540" fill="black"/>
  <rect x="460" y="555" width="220" height="40" fill="white" stroke="black"/>
  <text x="570" y="575" text-anchor="middle" font-size="12">channel_select_counter++</text>
  <polygon points="570,600 570,620" fill="black"/>
  <rect x="440" y="625" width="260" height="50" fill="white" stroke="black"/>
  <text x="570" y="645" text-anchor="middle" font-size="12">switch → channel_1 ... channel_10</text>
  <line x1="195" y1="620" x2="195" y2="650" stroke="black"/>
  <line x1="195" y1="650" x2="440" y2="650" stroke="black"/>
  <rect x="330" y="600" width="100" height="35" rx="10" fill="lightcoral" stroke="black"/>
  <text x="380" y="622" text-anchor="middle" font-size="13">Конец ISR</text>
</svg>